<svg version="1.1" xmlns="http://www.w3.org/2000/svg" x="0px" y="0px" width="174px" height="32.629px" viewBox="0 0 174 32.629" style="enable-background:new 0 0 174 32.629;">
                        <title>کاشی پارس</title>
                        <defs></defs>
                        <g>
                            <g>
                                <polygon class="st0" points="35.467,13.355 9.497,20.907 14.784,0 12.726,1.603 6.7,24.927 34.102,19.07 		">
                                </polygon>
                                <polygon class="st1" points="27.053,26.542 32.611,25.907 33.917,20.167 28.244,21.31 		"></polygon>
                                <polygon class="st1" points="27.304,21.499 5.508,25.952 10.98,5.406 9.345,6.453 3.352,29.041 26.133,26.647 		">
                                </polygon>
                                <polygon class="st2" points="20.429,28.249 2.392,29.734 7.679,9.688 5.717,11.076 0,32.629 19.564,32.05 		">
                                </polygon>
                                <polygon class="st2" points="25.842,31.864 31.292,31.702 32.301,27.272 26.784,27.726 		"></polygon>
                                <polygon class="st2" points="25.885,27.8 21.428,28.167 20.551,32.02 24.954,31.89 		">
                                </polygon>
                            </g>
                            <g>
                                <path class="st2" d="M61.495,23.211c-1.209,1.153-2.727,1.743-4.582,1.743h-4.47v7.506h-3.402V12.893h7.619c1.94,0,3.514,0.534,4.779,1.603c1.265,1.068,1.884,2.586,1.884,4.526C63.323,20.624,62.704,22.03,61.495,23.211z M56.576,15.986h-4.133v5.876h4.245c1.912,0,3.149-1.265,3.149-2.924C59.837,16.998,58.6,15.986,56.576,15.986z">
                                </path>
                                <path class="st2" d="M80.078,32.46h-3.599l-1.546-4.329H67.68l-1.574,4.329h-3.57l7.394-19.567h2.755L80.078,32.46zM73.921,25.235l-1.293-3.964l-1.293-4.02H71.25l-1.265,3.936l-1.321,4.048H73.921z">
                                </path>
                                <path class="st2" d="M96.467,32.46h-3.823l-3.402-8.069h-3.627v8.069h-3.402V12.893h8.322c1.715,0,3.121,0.506,4.273,1.546c1.153,1.012,1.715,2.362,1.715,4.076c0,2.474-1.434,4.47-3.908,5.37L96.467,32.46z M90.001,15.901h-4.386v5.454h4.273c1.884,0,3.149-1.04,3.149-2.84C93.037,16.745,91.885,15.901,90.001,15.901z">
                                </path>
                                <path class="st2" d="M110.608,17.363c-1.49-0.984-3.093-1.462-4.836-1.462c-2.249,0-3.317,0.984-3.317,2.474c0,0.759,0.337,1.321,1.012,1.687c0.703,0.337,1.94,0.675,3.767,0.984c1.659,0.309,2.755,0.675,3.908,1.49c1.209,0.787,1.855,2.193,1.855,4.133c0,1.827-0.703,3.289-2.137,4.358c-1.406,1.068-3.149,1.602-5.229,1.602c-3.149,0-5.735-0.9-7.759-2.699l2.052-2.643c1.574,1.434,3.542,2.165,5.876,2.165c2.221,0,3.627-0.956,3.627-2.671c0-1.546-1.096-2.305-3.57-2.671c-1.603-0.225-2.53-0.394-3.852-0.928c-1.827-0.787-2.84-2.08-2.924-4.695c0-1.827,0.647-3.261,1.94-4.245c1.321-1.012,2.868-1.518,4.695-1.518c2.671,0,4.864,0.618,6.578,1.827L110.608,17.363z">
                                </path>
                                <path class="st2" d="M135.234,15.93h-5.454V32.46h-3.402V15.93h-5.426v-3.036h14.282V15.93z"></path>
                                <path class="st2" d="M140.968,32.46h-3.43V12.893h3.43V32.46z"></path>
                                <path class="st2" d="M158.145,32.46h-13.101V12.893h3.402v16.475h9.699V32.46z">
                                </path>
                                <path class="st2" d="M174,32.46h-13.101V12.893H174v3.092h-9.699v5.117h8.265v2.98h-8.265v5.285H174V32.46z">
                                </path>
                            </g>
                        </g>
                    </svg>